<?xml version="1.0" encoding="UTF-8" ?>
<!DOCTYPE svg PUBLIC "-//W3C//DTD SVG 1.1//EN" "http://www.w3.org/Graphics/SVG/1.1/DTD/svg11.dtd">
<svg width="100%" height="100%" viewBox="0 0 2235 480" version="1.1" xmlns="http://www.w3.org/2000/svg">
<g id="#ffffffff">
<path fill="#ffffff" opacity="1.00" d=" M 63.44 36.25 C 68.45 30.29 74.35 25.07 80.88 20.82 C 85.01 32.84 89.14 44.86 93.19 56.90 C 78.15 62.82 70.47 79.80 71.51 95.24 C 62.53 87.55 54.67 77.25 53.36 65.15 C 52.17 54.56 56.85 44.28 63.44 36.25 Z" />
<path fill="#ffffff" opacity="1.00" d=" M 202.32 78.26 C 216.29 67.34 233.31 60.19 250.96 58.28 C 275.66 58.56 300.36 59.86 325.07 60.32 C 311.09 68.38 298.93 79.21 288.34 91.32 C 262.75 120.72 243.74 155.14 226.97 190.13 C 222.74 181.28 216.07 173.69 208.06 168.08 C 190.57 155.60 170.01 148.24 149.31 143.08 C 155.86 128.91 165.25 116.25 175.44 104.51 C 183.68 95.06 192.65 86.24 202.32 78.26 Z" />
<path fill="#ffffff" opacity="1.00" d=" M 83.73 103.96 C 82.97 93.13 88.01 81.38 98.24 76.66 C 102.78 91.74 107.35 106.81 111.77 121.93 C 101.51 117.51 92.21 111.17 83.73 103.96 Z" />
<path fill="#ffffff" opacity="1.00" d=" M 739.79 178.83 C 758.35 167.53 780.46 162.98 802.02 163.49 C 820.57 163.58 839.45 167.20 855.86 176.12 C 867.24 182.33 877.26 191.56 883.03 203.29 C 888.64 193.03 895.41 182.84 905.61 176.63 C 913.80 171.39 923.86 169.90 933.41 171.01 C 928.35 190.63 923.42 210.29 918.35 229.90 C 909.93 224.18 898.18 224.53 889.59 229.67 C 888.81 243.86 884.81 258.03 877.12 270.07 C 869.45 282.28 857.85 291.76 844.77 297.68 C 825.64 306.49 804.00 307.93 783.26 306.25 C 770.90 305.20 758.67 302.53 747.08 298.08 C 741.54 297.75 735.04 299.81 732.50 305.17 C 731.19 307.50 731.77 310.54 733.86 312.21 C 738.19 315.87 744.06 316.82 749.48 317.77 C 767.36 320.10 785.26 322.33 803.16 324.59 C 822.14 326.64 841.59 331.96 856.54 344.37 C 867.77 353.41 874.83 367.42 875.11 381.88 C 875.27 398.54 869.29 415.50 857.66 427.60 C 846.94 438.89 832.36 445.76 817.46 449.64 C 795.81 455.29 773.17 455.20 751.00 453.63 C 728.82 451.80 706.44 448.18 685.85 439.40 C 674.21 434.28 662.68 427.08 656.10 415.84 C 649.91 405.43 650.08 392.22 654.41 381.16 C 658.06 372.43 665.97 366.30 674.40 362.50 C 685.04 357.74 696.68 355.58 708.26 354.79 C 698.20 351.90 687.84 347.22 681.79 338.27 C 676.17 330.24 676.12 319.52 679.35 310.55 C 682.16 302.75 688.56 296.81 695.58 292.70 C 703.84 287.89 713.13 285.09 722.48 283.31 C 715.92 276.97 710.27 269.50 707.24 260.82 C 701.95 246.44 703.44 230.40 708.35 216.13 C 713.88 200.40 725.65 187.40 739.79 178.83 M 794.17 207.24 C 783.97 209.80 778.38 219.88 775.34 229.16 C 772.73 237.32 770.66 246.93 775.18 254.81 C 778.89 261.36 786.85 263.78 793.93 264.22 C 802.08 264.71 810.19 260.68 814.67 253.84 C 818.93 247.35 821.09 239.69 822.24 232.07 C 823.29 224.94 822.11 216.74 816.60 211.62 C 810.59 206.25 801.73 205.56 794.17 207.24 M 725.53 377.85 C 720.65 378.73 715.74 380.54 712.19 384.12 C 709.54 386.99 707.64 391.07 708.56 395.03 C 709.63 398.89 712.88 401.62 716.17 403.64 C 723.04 407.71 730.83 409.86 738.54 411.71 C 748.22 413.86 758.07 415.23 767.95 416.11 C 777.24 416.89 786.71 417.32 795.90 415.39 C 800.43 414.38 805.05 412.71 808.42 409.39 C 812.27 405.60 813.75 399.15 810.93 394.37 C 808.59 390.69 804.42 388.78 800.49 387.31 C 791.97 384.34 782.96 383.32 774.06 382.20 C 761.66 380.57 749.25 379.02 736.86 377.35 C 733.09 376.76 729.26 377.28 725.53 377.85 Z" />
<path fill="#ffffff" opacity="1.00" d=" M 290.49 183.30 C 312.46 168.33 339.91 163.65 366.06 165.26 C 388.61 166.48 412.33 171.08 430.38 185.53 C 442.92 195.48 450.40 210.88 451.62 226.73 C 453.50 244.91 448.49 262.76 443.63 280.08 C 436.34 307.14 428.98 334.18 421.74 361.25 C 396.20 361.26 370.66 361.23 345.13 361.27 C 347.33 353.84 349.50 346.40 351.81 338.99 C 340.09 352.73 323.70 362.58 305.79 365.43 C 290.75 367.75 274.77 366.80 260.81 360.36 C 249.61 355.25 240.17 345.76 236.37 333.92 C 231.91 320.55 234.15 305.90 239.18 293.03 C 244.57 279.73 255.65 269.39 268.48 263.30 C 282.14 256.70 297.21 253.73 312.18 251.97 C 329.13 249.99 346.36 250.52 363.14 247.10 C 368.62 245.81 374.90 244.17 378.10 239.11 C 379.86 234.02 380.26 227.77 376.85 223.25 C 372.20 217.34 364.14 215.76 357.01 215.72 C 348.12 215.42 338.98 219.31 333.68 226.59 C 330.71 230.38 329.04 234.96 327.69 239.53 C 304.21 236.46 280.74 233.27 257.25 230.27 C 261.87 211.15 274.26 194.28 290.49 183.30 M 325.26 285.25 C 318.01 288.79 312.60 295.93 311.46 303.96 C 310.58 309.45 313.00 315.56 317.91 318.40 C 323.60 321.86 330.72 322.14 337.10 320.81 C 346.43 318.78 354.39 312.33 359.20 304.19 C 364.69 295.27 365.53 284.57 368.51 274.72 C 354.34 279.24 338.66 278.15 325.26 285.25 Z" />
<path fill="#ffffff" opacity="1.00" d=" M 588.18 173.32 C 604.12 164.80 623.34 163.91 640.59 168.55 C 653.77 172.05 665.69 180.82 671.91 193.09 C 680.88 210.24 680.11 230.71 675.75 249.06 C 666.16 286.54 655.97 323.86 646.06 361.26 C 620.39 361.24 594.72 361.26 569.05 361.25 C 578.41 326.49 587.72 291.71 597.07 256.94 C 599.33 248.78 601.77 240.22 600.06 231.71 C 599.20 227.14 596.11 223.03 591.80 221.19 C 583.50 217.65 573.17 219.09 566.49 225.28 C 559.13 231.68 555.06 240.93 552.43 250.13 C 542.40 287.15 532.58 324.24 522.53 361.26 C 497.01 361.23 471.49 361.28 445.98 361.24 C 462.94 297.75 479.92 234.27 496.82 170.76 C 522.09 170.74 547.37 170.74 572.65 170.76 C 570.74 177.22 569.13 183.77 567.05 190.17 C 573.28 183.64 580.02 177.38 588.18 173.32 Z" />
<path fill="#ffffff" opacity="1.00" d=" M 106.69 225.92 C 122.01 230.71 137.66 234.34 153.32 237.85 C 168.35 240.94 183.37 245.11 196.87 252.59 C 178.77 289.85 160.99 327.28 142.85 364.53 C 107.15 364.46 71.45 364.52 35.75 364.50 C 59.31 318.26 83.01 272.10 106.69 225.92 Z" />
</g>
<g id="#da3248ff">
<path fill="#da3248" opacity="1.00" d=" M 51.34 83.81 C 56.17 94.24 63.93 103.01 72.73 110.27 C 94.58 128.15 122.05 137.28 149.31 143.08 C 170.01 148.24 190.57 155.60 208.06 168.08 C 216.07 173.69 222.74 181.28 226.97 190.13 C 232.89 202.14 233.38 215.85 233.53 228.98 C 233.66 236.05 233.43 243.13 232.42 250.14 C 232.76 232.33 222.89 215.66 209.45 204.55 C 192.22 190.24 170.25 183.19 148.52 179.23 C 127.21 175.79 105.76 171.19 86.21 161.74 C 76.44 156.81 66.85 150.59 60.56 141.44 C 58.32 138.03 56.53 134.20 56.23 130.09 C 54.64 114.66 52.97 99.24 51.34 83.81 Z" />
<path fill="#da3248" opacity="1.00" d=" M 993.97 109.00 C 1018.72 91.35 1049.98 84.89 1079.98 86.18 C 1100.25 87.03 1120.70 90.99 1138.95 100.13 C 1153.24 107.27 1166.02 118.08 1173.83 132.17 C 1184.29 150.65 1185.08 172.95 1181.43 193.43 C 1160.00 190.78 1138.58 188.05 1117.16 185.40 C 1117.23 176.26 1116.30 166.64 1111.24 158.76 C 1105.08 148.66 1093.86 142.72 1082.46 140.69 C 1072.75 139.03 1062.43 138.87 1053.10 142.39 C 1047.08 144.66 1041.62 149.03 1039.11 155.07 C 1036.93 160.40 1036.62 167.02 1040.16 171.86 C 1044.43 177.77 1051.04 181.32 1057.35 184.64 C 1076.24 194.15 1096.89 199.56 1115.69 209.31 C 1130.53 216.81 1145.24 226.21 1154.53 240.38 C 1162.05 251.65 1164.49 265.71 1162.94 279.04 C 1160.59 298.90 1152.73 318.39 1139.29 333.35 C 1128.42 345.59 1114.11 354.47 1098.76 359.92 C 1083.14 365.49 1066.51 367.81 1049.97 368.00 C 1028.97 368.22 1007.73 365.41 988.00 358.01 C 972.58 352.21 958.05 343.42 946.91 331.17 C 935.32 318.55 928.04 302.12 926.36 285.07 C 925.26 275.95 926.13 266.77 927.23 257.70 C 949.34 260.51 971.45 263.32 993.55 266.16 C 993.80 277.53 996.03 289.58 1003.66 298.45 C 1012.03 308.49 1025.28 312.84 1037.96 313.71 C 1048.06 314.58 1059.09 313.73 1067.53 307.53 C 1073.30 303.25 1077.27 296.20 1077.02 288.93 C 1076.46 281.80 1071.03 276.33 1065.54 272.35 C 1054.62 264.72 1042.01 260.06 1029.59 255.51 C 1012.92 249.19 996.36 241.82 982.20 230.81 C 971.76 222.70 962.87 212.04 958.82 199.29 C 954.05 184.62 955.82 168.65 960.40 154.16 C 966.16 135.91 978.41 120.02 993.97 109.00 Z" />
<path fill="#da3248" opacity="1.00" d=" M 2044.33 91.02 C 2069.71 90.97 2095.09 91.01 2120.47 91.00 C 2111.29 124.34 2102.07 157.67 2092.89 191.00 C 2104.56 176.92 2121.48 166.77 2139.91 165.30 C 2156.54 164.02 2174.58 167.23 2187.46 178.51 C 2198.53 188.06 2204.02 202.67 2204.92 217.01 C 2205.73 228.53 2204.15 240.11 2201.22 251.24 C 2191.71 287.55 2181.85 323.76 2172.10 360.00 C 2146.46 360.00 2120.82 360.01 2095.18 359.99 C 2104.55 325.43 2113.91 290.86 2123.28 256.30 C 2125.41 248.78 2127.39 240.93 2126.24 233.07 C 2125.58 228.07 2122.91 223.10 2118.32 220.71 C 2109.05 216.03 2096.83 218.04 2089.81 225.79 C 2083.27 232.59 2079.80 241.64 2077.34 250.58 C 2067.46 287.05 2057.55 323.51 2047.71 359.98 C 2022.19 360.02 1996.68 360.00 1971.16 359.99 C 1995.55 270.34 2019.98 180.69 2044.33 91.02 Z" />
<path fill="#da3248" opacity="1.00" d=" M 62.02 160.58 C 68.51 174.76 83.15 182.61 96.86 188.44 C 114.18 195.42 132.57 199.23 150.99 201.92 C 170.73 204.94 190.50 211.92 205.60 225.39 C 226.91 243.99 235.53 275.49 227.23 302.43 C 229.04 291.66 225.54 280.53 219.28 271.76 C 213.57 263.60 205.49 257.41 196.87 252.59 C 183.37 245.11 168.35 240.94 153.32 237.85 C 137.66 234.34 122.01 230.71 106.69 225.92 C 96.74 222.65 86.65 219.06 78.11 212.82 C 71.91 208.26 67.36 201.58 65.51 194.09 C 62.75 183.15 62.75 171.77 62.02 160.58 Z" />
<path fill="#da3248" opacity="1.00" d=" M 1245.66 176.76 C 1264.36 166.70 1285.85 162.40 1307.00 163.08 C 1325.33 163.55 1344.18 167.20 1359.80 177.25 C 1372.04 185.01 1381.41 196.96 1386.47 210.51 C 1393.30 228.49 1393.53 248.30 1390.72 267.13 C 1389.93 272.11 1389.11 277.10 1387.58 281.92 C 1342.93 282.11 1298.28 281.94 1253.63 282.01 C 1253.35 290.13 1254.42 298.80 1259.42 305.50 C 1263.80 311.55 1270.92 315.01 1278.14 316.32 C 1288.52 318.22 1299.75 317.30 1309.07 312.05 C 1315.71 308.40 1321.02 302.66 1324.79 296.13 C 1342.71 303.30 1360.62 310.47 1378.53 317.66 C 1370.37 331.63 1358.64 343.49 1344.71 351.74 C 1325.90 363.00 1303.79 367.88 1282.01 368.00 C 1260.75 368.09 1238.85 364.58 1220.23 353.81 C 1206.42 345.94 1195.13 333.47 1189.40 318.58 C 1182.15 300.36 1182.60 280.01 1186.61 261.08 C 1189.99 245.03 1195.65 229.34 1204.45 215.44 C 1214.56 199.30 1228.82 185.72 1245.66 176.76 M 1276.60 219.59 C 1269.02 226.85 1264.72 236.72 1261.40 246.49 C 1282.39 246.51 1303.38 246.49 1324.37 246.50 C 1326.07 237.53 1326.10 227.25 1320.36 219.64 C 1315.44 213.10 1306.80 210.87 1298.97 211.01 C 1290.78 210.94 1282.53 213.87 1276.60 219.59 Z" />
<path fill="#da3248" opacity="1.00" d=" M 1869.16 165.66 C 1888.07 161.52 1907.86 161.48 1926.86 165.17 C 1944.78 168.75 1962.64 177.12 1973.81 192.06 C 1984.13 205.53 1987.20 223.28 1985.32 239.86 C 1961.85 242.90 1938.36 245.80 1914.89 248.80 C 1915.83 240.37 1916.34 231.32 1912.55 223.48 C 1910.47 219.04 1906.29 215.72 1901.52 214.66 C 1891.97 212.53 1881.59 215.81 1874.74 222.74 C 1865.87 231.53 1861.07 243.44 1857.30 255.12 C 1853.57 267.31 1850.48 280.08 1851.73 292.91 C 1852.44 300.22 1855.68 307.99 1862.51 311.53 C 1870.52 315.54 1880.65 315.07 1888.31 310.43 C 1897.62 304.71 1903.19 294.78 1907.59 285.10 C 1929.29 291.60 1951.01 298.04 1972.71 304.54 C 1966.27 319.07 1956.55 332.16 1944.28 342.27 C 1929.44 354.59 1911.10 362.43 1892.10 365.44 C 1872.83 368.34 1852.85 367.29 1834.14 361.75 C 1817.16 356.67 1801.33 346.51 1791.39 331.63 C 1779.78 314.60 1776.59 293.09 1778.86 272.91 C 1782.28 243.34 1794.33 213.93 1816.32 193.33 C 1830.92 179.43 1849.52 169.99 1869.16 165.66 Z" />
<path fill="#da3248" opacity="1.00" d=" M 1441.29 188.27 C 1457.67 174.21 1478.92 166.85 1500.19 164.73 C 1518.99 163.06 1538.14 164.20 1556.50 168.70 C 1573.10 172.90 1589.64 180.90 1600.09 194.93 C 1609.55 207.42 1612.63 223.66 1611.58 239.04 C 1611.01 249.48 1608.60 259.69 1605.80 269.73 C 1597.60 299.82 1589.43 329.92 1581.22 360.00 C 1555.58 360.00 1529.94 360.00 1504.30 360.00 C 1506.55 352.36 1508.90 344.74 1511.09 337.08 C 1499.35 350.99 1482.78 360.84 1464.77 363.80 C 1449.76 366.23 1433.85 365.24 1419.83 359.04 C 1409.93 354.65 1401.25 347.05 1396.60 337.16 C 1391.38 326.33 1391.30 313.67 1394.25 302.19 C 1397.01 289.66 1403.97 278.03 1414.17 270.16 C 1428.10 259.23 1445.72 254.55 1462.93 251.89 C 1480.49 249.08 1498.37 249.51 1515.97 247.06 C 1522.50 245.98 1529.44 244.90 1534.89 240.85 C 1538.40 238.46 1538.66 233.82 1538.82 229.97 C 1538.91 224.85 1535.87 219.97 1531.32 217.67 C 1524.21 213.98 1515.67 213.53 1507.93 215.18 C 1498.16 217.32 1490.42 225.36 1487.62 234.82 C 1486.95 235.95 1487.12 238.67 1485.11 237.93 C 1461.95 234.91 1438.80 231.85 1415.64 228.81 C 1419.89 213.13 1428.89 198.78 1441.29 188.27 M 1496.07 279.45 C 1487.82 281.44 1479.20 284.94 1474.24 292.20 C 1470.71 297.52 1468.63 304.56 1471.15 310.73 C 1473.38 316.23 1479.23 319.24 1484.87 319.94 C 1497.36 321.88 1510.13 315.41 1517.04 305.04 C 1523.81 295.74 1524.65 283.92 1527.88 273.21 C 1517.53 276.54 1506.54 276.68 1496.07 279.45 Z" />
<path fill="#da3248" opacity="1.00" d=" M 1758.94 171.12 C 1770.32 166.69 1782.71 166.86 1794.73 167.00 C 1788.50 190.01 1782.27 213.02 1776.02 236.03 C 1765.68 235.20 1755.30 235.37 1744.94 235.28 C 1736.41 235.28 1727.35 237.02 1720.73 242.75 C 1713.56 248.89 1710.06 258.06 1707.57 266.91 C 1699.06 297.93 1690.59 328.97 1682.09 360.00 C 1656.45 360.00 1630.80 360.01 1605.16 359.99 C 1622.23 296.67 1639.35 233.36 1656.38 170.03 C 1682.03 169.97 1707.68 170.01 1733.33 170.01 C 1730.30 181.74 1726.70 193.34 1724.04 205.16 C 1731.07 190.16 1743.08 176.83 1758.94 171.12 Z" />
</g>
</svg>
