<?xml version="1.0" encoding="UTF-8" ?>
<!DOCTYPE svg PUBLIC "-//W3C//DTD SVG 1.1//EN" "http://www.w3.org/Graphics/SVG/1.1/DTD/svg11.dtd">
<svg width="30" height="30" version="1.1" xmlns="http://www.w3.org/2000/svg">
  <path class="path1" fill="#ffffff" d="M29.7 10.3s-.3-2-1.1-2.8c-1.1-1.1-2.3-1.1-2.8-1.2C21.9 6 16 6 16 6s-5.9 0-9.8.3c-.6.1-1.7.1-2.8 1.2-.8.9-1.1 2.8-1.1 2.8S2 12.6 2 14.9v2.2c0 2.3.3 4.6.3 4.6s.3 2 1.1 2.8c1.1 1.1 2.5 1.1 3.1 1.2 2.2.2 9.5.3 9.5.3s5.9 0 9.8-.3c.5-.1 1.7-.1 2.8-1.2.8-.9 1.1-2.8 1.1-2.8s.3-2.3.3-4.6v-2.2c0-2.3-.3-4.6-.3-4.6zm-16.6 9.4v-8l7.6 4-7.6 4z"></path>
</svg>
